<svg width="492" height="100" viewBox="0 0 492 100" fill="none" xmlns="http://www.w3.org/2000/svg">
<g clip-path="url(#clip0_1_2)">
<mask id="mask0_1_2" style="mask-type:luminance" maskUnits="userSpaceOnUse" x="0" y="0" width="492" height="100">
<path d="M492 0H0V100H492V0Z" fill="white"/>
</mask>
<g mask="url(#mask0_1_2)">
<path d="M147.791 33.0601V98.3606H132.766L131.674 89.6174C127.576 95.9016 119.38 100 110.639 100C95.6136 100 86.5986 89.8907 86.5986 73.7704V33.0601H102.716V68.306C102.716 80.601 107.634 85.7923 116.649 85.7923C126.756 85.7923 131.674 79.7814 131.674 67.4863V33.3333H147.791V33.0601Z" fill="black"/>
<path d="M155.713 98.3607V0H171.831V98.3607H155.713Z" fill="black"/>
<path d="M210.896 31.1475C228.653 31.1475 240.946 40.9835 242.585 56.8305H226.467C224.555 49.4535 219.091 45.6283 211.442 45.6283C201.062 45.6283 194.232 53.5518 194.232 65.5737C194.232 77.5956 200.515 85.519 210.896 85.519C218.818 85.519 224.555 81.4207 226.467 74.3169H242.585C240.673 89.6174 227.833 99.9999 210.896 99.9999C190.954 99.9999 178.114 86.3387 178.114 65.5737C178.114 44.8087 191.5 31.1475 210.623 31.1475H210.896Z" fill="black"/>
<path d="M291.758 47.8141H285.748C274.001 47.8141 266.898 54.0982 266.898 66.6665V98.3605H250.781V33.06H266.079L266.898 42.6228C269.63 36.0654 275.913 31.6938 284.655 31.6938C286.841 31.6938 289.026 31.6939 291.758 32.5135V47.5408V47.8141Z" fill="black"/>
<path d="M358.961 33.0601V98.3606H343.936L342.843 89.6174C338.745 95.9016 330.55 100 321.808 100C306.783 100 297.768 89.8907 297.768 73.7704V33.0601H313.886V68.306C313.886 80.601 318.803 85.7923 327.818 85.7923C337.926 85.7923 342.843 79.7814 342.843 67.4863V33.3333H358.961V33.0601Z" fill="black"/>
<path d="M366.61 98.3606V33.06H381.362L382.728 40.7103C386.006 35.2458 392.562 31.1475 402.123 31.1475C411.958 31.1475 418.788 36.0655 422.339 43.4425C425.617 35.7923 433.266 31.1475 443.101 31.1475C458.945 31.1475 467.687 40.7103 467.687 55.7376V98.3606H451.569V59.836C451.569 50.5464 446.652 45.6283 439.003 45.6283C431.354 45.6283 425.344 50.5464 425.344 61.4753V98.3606H409.226V59.836C409.226 50.8196 404.309 45.9016 396.66 45.9016C389.011 45.9016 382.728 50.8196 382.728 61.4753V98.3606H366.61Z" fill="black"/>
<path d="M16.9373 41.8033V15.5738H69.1149V0H0V41.8033H16.9373Z" fill="black"/>
<path d="M16.9375 41.8032V98.0874H33.8748V56.2841H79.2229V41.8032H16.9375Z" fill="black"/>
</g>
</g>
<defs>
<clipPath id="clip0_1_2">
<rect width="492" height="100" fill="white"/>
</clipPath>
</defs>
</svg>
